<?xml version="1.0" encoding="utf-8"?>
<!-- Generator: Adobe Illustrator 19.1.0, SVG Export Plug-In . SVG Version: 6.00 Build 0)  -->
<svg version="1.1" id="Layer_1" xmlns="http://www.w3.org/2000/svg" xmlns:xlink="http://www.w3.org/1999/xlink" x="0px" y="0px"
	 viewBox="0 0 761 338.9" style="enable-background:new 0 0 761 338.9;" xml:space="preserve">
<style type="text/css">
	.st0{fill:#383A37;}
	.st1{fill:#FFDC11;}
	.st2{fill:#F4BE18;}
	.st3{fill:#20B1E7;}
	.st4{fill:#2A8BC8;}
	.st5{fill:#F0533F;}
	.st6{fill:#ED1C24;}
	.st7{fill:#FFFFFF;}
</style>
<path class="st0" d="M185.1,76.4c9.3-3,33.7-5.6,50.4-2.3c-9.9-11.3-33.1-13.3-44.9-17.4c6.6-13.6,25-27.2,39.8-28.1
	c-19.5-7.4-45.9,6.3-63.6,14.7c-13.1,6.2-20.4,2.6-27.3-12.6c-6.5,9.9-10.2,14.2-7.8,27.1c-30.2-12-36.4,17.1-61.9,31.2
	c23.3-4.8,33.2-2.9,57.1-5.1l40.7-1L185.1,76.4z"/>
<g>
	<g>
		<g>
			<g>
				<path class="st1" d="M211.3,226.2c0.2,0.6-0.2,1.3-0.8,1.5L68.9,270.1c-0.6,0.2-1.3-0.2-1.5-0.8l-46-157.2
					c-0.2-0.6,0.2-1.3,0.8-1.5L162.7,68c0.6-0.2,1.3,0.2,1.5,0.8L211.3,226.2z"/>
			</g>
		</g>
	</g>
	<g>
		<g>
			<g>
				<path class="st2" d="M74.3,267.2c0.2,0.6-0.2,1.3-0.8,1.5l-4.6,1.4c-0.6,0.2-1.3-0.2-1.5-0.8L20.4,112.4
					c-0.2-0.6,0.2-1.3,0.8-1.5l4.8-1.5c0.6-0.2,1.3,0.2,1.5,0.8L74.3,267.2z"/>
			</g>
		</g>
	</g>
</g>
<path class="st0" d="M195.4,97.6c0,4-2.6,7.2-5.7,7.2c-3.2,0-5.7-3.2-5.7-7.2s2.6-7.2,5.7-7.2C192.8,90.3,195.4,93.6,195.4,97.6z"/>
<g>
	<g>
		<path class="st3" d="M217.2,304.1c-0.1,2.2-2,4-4.2,3.9l-152.7-7.1c-2.2-0.1-4-2-3.9-4.2l8.7-187.3c0.1-2.2,2-4,4.2-3.9l152.7,7.1
			c2.2,0.1,4,2,3.9,4.2L217.2,304.1z"/>
	</g>
	<g>
		<path class="st4" d="M61.7,300.9l-4,0c-0.8,0.1-1.4-0.6-1.4-1.4l9-192.1c0.1-1.2,1.1-2.1,2.2-2l3.6,0.2c0.5,0,1,0.5,0.9,1
			C71.5,121.2,63,298.5,63,298.5C62.9,300.1,63.3,300.8,61.7,300.9z"/>
	</g>
</g>
<g>
	<path class="st5" d="M242.1,278.1c0,0.7-0.5,1.2-1.2,1.3l-188.2,7.6c-0.7,0-1.2-0.5-1.3-1.2l-5.4-135.1c0-0.7,0.5-1.2,1.2-1.3
		l188.2-7.5c0.7,0,1.2,0.5,1.3,1.2L242.1,278.1z"/>
</g>
<g>
	<path class="st6" d="M57.7,286.7l-5.7,0.2c-0.3,0-0.5-0.2-0.5-0.5L45.7,150c0-0.3,0.2-0.5,0.5-0.5l5.7-0.2c0.3,0,0.5,0.2,0.5,0.5
		l5.8,136.4C58.3,286.4,58,286.6,57.7,286.7z"/>
</g>
<g>
	<g>
		<path class="st7" d="M49.4,233.6c3.4,1.3,8.3,3.2,10.1,4.2c0.4,0.2,15.8,9.5,19.1,12.2c6.5,5.4,9.7,13.6,15.8,19.4
			c2.9,2.8,6.4,3.4,9.1,3.3c1.8-0.1,4.9-1.4,5.7-5.2c0.6-2.7-1.6-4.6-2.6-5.9c-1.8-2.4-4.4-4-6.3-6.2c-1.6-1.8-3.7-4.3-3.9-6.2
			c-0.1-3.9,4.2-2.2,6.2-1.7c4.6,1.2,9.3,3.3,13.8,5.6c2.3,1.2,4.7,2.4,7,3.4c2.1,0.9,3.9,1.7,6.3,0.8c1.2-0.5,4.4-2.8,4.5-5.2
			c0.2-3.4-2.1-5.1-3.5-5.8c-4.4-2.2-9.1-3.7-13.7-4.9c-2.4-0.6-3.1-0.8-7.3-1.8c-0.8-0.2-2.2-0.4-2.9-0.9c-0.8-0.6-1.1-1.2-1-3.1
			c0.3-4.1,5-3.8,6.5-3.9c3.1-0.4,6.1,0.4,9.1,0.9c6.2,1.1,12.4,3.2,18.8,3.2c1.3,0,2.7-0.4,3.9-1c0.9-0.4,2.9-1,3.5-2.8
			c1.1-3.4-1.6-5.4-3-6.4c-2.5-1.9-5.6-2.3-8.4-2.8c-3.8-0.7-7.6-0.8-11.4-1.2c-3.2-0.3-6.3-0.6-9.5-0.5c-1.5,0.1-2.9,0-4.3-0.5
			c-0.9-0.3-3.1-1-3.7-2.6c-0.9-2.5,2.2-4.5,3.1-5.1c2.9-1.7,6.1-1.6,9.1-2c6.1-0.7,12.7,1,18.6-4.5c2-1.9,0.8-4.5-0.4-6.2
			c-1.4-2.1-3.8-2.8-5.8-3c-5.8-0.6-11.3,0.5-17.1,2.1c-3.2,0.9-6.3,2.3-9.5,2.9c-3.3,0.6-6.4,1.8-9.6,1c-2.2-0.6-3.7-1.7-5.1-4.5
			c-1.3-2.5,0.5-6.6,1.4-9.1c0.7-1.7,1.7-3.3,2.2-5.1c0.4-1.5,0.7-3.8,0.7-5.5c0-4.1-1.9-6.9-4-7.4c-2.8-0.7-6,0-8.7,2.3
			c-1,0.9-1.9,2-2.7,3.5c-1,1.7-0.9,2.8-1.3,4.8c-1.5,8.1-6.3,12-10.2,15.5c-3.4,3-10.9,2.7-19.4,2.7L49.4,233.6z"/>
	</g>
	<path class="st7" d="M50.1,233.9c-11-3-20.6-37.7,0-33.4V233.9z"/>
</g>
<g>
	<g>
		<g>
			<path class="st7" d="M239.3,207.9c-5,0.3-17.7,1.7-23.5,2.2c-0.5,0-1,0.1-1.5,0.1c-0.2,0-5.8,0.4-11.3,2c-6.4,2-11,6.6-17.2,9.2
				c-1.4,0.6-2,1.1-5.9,2.1c0,0,0.1,0,0.1,0c-3.2,0.5-5.6,1.2-8-0.3c-2.1-1.2-2.9-4.1-2.6-6.5c0.4-2.8,3.1-3.8,4.5-4.6
				c2.5-1.6,5.6-2.2,8.1-3.6c2.1-1.1,5-2.7,5.8-4.4c1.4-3.7-3.2-3.6-5.2-3.7c-4.8-0.5-9.8-0.1-14.8,0.4c-2.6,0.3-5.2,0.6-7.8,0.7
				c-2.3,0.1-4.2,0.3-6.1-1.4c-0.9-0.8-3.1-4.1-2.4-6.4c1-3.2,3.8-4,5.3-4.2c4.9-0.6,9.8-0.3,14.6,0.2c2.5,0.2,3.2,0.3,7.5,0.9
				c0.8,0.1,2.2,0.4,3,0.2c1-0.3,1.5-0.8,2-2.5c1.2-3.9-3.4-5.3-4.7-6c-2.8-1.4-5.8-1.8-8.8-2.3c-6.2-1.2-12.7-1.4-18.7-3.5
				c-2.3-0.8-4.7-1.9-5.7-4.3c-1.6-3.5,1.7-6.3,4.7-7c6.6-1.5,14,1.7,20.3,3.4c3.1,0.8,6.1,1.6,9,2.9c1.3,0.6,2.8,1,4.2,1.1
				c1,0,3.3,0.1,4.4-1.1c1.7-2-0.5-5-1.2-5.8c-2.1-2.6-5-4-7.8-5c-6-2.2-14.1-2.9-15.9-10.7c-0.7-3,0.8-4.5,2.5-5.7
				c2-1.4,4.6-1.3,6.5-0.8c5.6,1.5,10.5,4.4,15.3,7.9c2.7,1.9,5.1,4.4,7.9,6c2.8,1.7,5.4,3.9,8.7,4.3c2.3,0.2,4.1-0.3,6.4-2.4
				c2.1-1.9,1.9-6.4,1.9-9c0-1.8-0.4-3.6-0.3-5.6c0.1-1.6,0.7-3.8,1.3-5.4c1.4-3.8,4.2-5.8,6.3-5.5c2.9,0.3,5.6,2.1,7.3,5.2
				c0.7,1.2,1.1,2.6,1.3,4.2c0.3,1.9-0.1,2.9-0.5,5c-1.5,8.1,1.7,13.4,4.2,18.1c1.8,3.4,3.4,4.8,5.5,6.1L239.3,207.9z"/>
		</g>
	</g>
	<path class="st7" d="M237.6,207.9c16-1.2,15.2-30,0-35.8V207.9z"/>
</g>
<g>
	<g>
		<g>
			<path class="st0" d="M269.1,232.6V229c8.7,0,10.1-2.9,10.1-15v-43c0-12.1-1.4-15-10.1-15v-3.6h23.8c13.6,0,38.3-0.8,38.4,18.5
				c0.1,13.9-11.7,17.8-23.4,19.4v0.3c12.2,0.3,28,5.9,28,20.3c0,17-18.2,21.7-31.9,21.7H269.1z M296.4,188.4
				c12,0,23.4-2.3,23.4-16.8c0-11.4-9.9-15.7-19.9-15.7c-8.6,0-9.9,3.7-9.9,11.3v21.2H296.4z M290.1,218c0,7.7,1.9,11,10.4,11
				c11.9,0,22.8-4.2,22.8-17.7c0-16.5-13.6-19.3-27.2-19.3h-6V218z"/>
			<path class="st0" d="M339.2,206.7c0-14.3,9.4-29,24.9-29c15.3,0,24.4,14.9,24.4,28.9c0,14-10.4,27.2-25,27.2
				C349.4,233.8,339.2,220.2,339.2,206.7z M377.4,204.5c0-8-2.5-23.2-13.3-23.2c-11.1,0-13.8,14.5-13.8,22.9
				c0,7.8,2.5,25.9,13.2,25.9C374.9,230.2,377.4,213,377.4,204.5z"/>
			<path class="st0" d="M391.6,206.7c0-14.3,9.4-29,24.9-29c15.3,0,24.4,14.9,24.4,28.9c0,14-10.4,27.2-25,27.2
				C401.8,233.8,391.6,220.2,391.6,206.7z M429.8,204.5c0-8-2.5-23.2-13.3-23.2c-11.1,0-13.8,14.5-13.8,22.9
				c0,7.8,2.5,25.9,13.2,25.9C427.3,230.2,429.8,213,429.8,204.5z"/>
			<path class="st0" d="M473.2,193.4c1.8-1.8,4.9-4.6,4.9-7.5c0-2.6-1.9-3.7-5.6-3.8v-3.2h25.6v3.2c-7.2,0.2-11.1,4.1-16,8.7
				l-8.6,8.1l15.6,22.4c3.1,4.5,5.7,8.2,11.6,8.1v3.2h-26.2v-3.2c3.1,0,5.9-0.5,5.9-3.2c0-2-2.4-5-3.4-6.7l-10.2-14.4l-7.2,6.8v5.6
				c0,10.3,0,11,7.6,11.9v3.2h-24.7v-3.2c7.5-0.9,7.5-1.5,7.5-11.9v-50c0-9.5-1.5-9.1-9.3-9.7v-3.2l19-6.3v58.7L473.2,193.4z"/>
		</g>
		<g>
			<path class="st0" d="M541.4,214c0,12.2,1.4,15,11.5,15v3.6h-33.8V229c10,0,11.4-2.9,11.4-15v-45.9c0-5.5,1.4-12.2-6-12.2
				c-11.2,0-20.3,8.6-25,17.9l-3-1.2l7.9-20.3h63.3l7.7,20.3l-2.7,1.2c-4.7-9.4-14.3-17.7-25.2-17.9c-7.5,0-6,6.7-6,12.2V214z"/>
			<path class="st0" d="M579.6,217.6c0,10.3,0,11,7.4,11.9v3.2h-24.3v-3.2c7.2-0.9,7.2-1.5,7.2-11.9V194c-0.3-5.8-0.4-7.9-7.1-7.9
				v-2.6l16.8-6.5v12.9c4.2-5.2,10.8-12.9,18-12.9c3.6,0,6.8,2.5,6.8,6.4c0,3.4-2.3,6.1-5.9,6.1c-3.8,0-5.3-2.9-8.8-2.9
				c-3.8,0-8.2,5-10.1,8.1V217.6z"/>
			<path class="st0" d="M645,224.8c-4.6,4.6-10.5,9-17.3,9c-4.5,0-9.2-1.6-11.9-5.7c-2.7-4.3-2.7-9.5-2.7-14.6V194
				c-0.3-5.8-0.4-7.9-7.1-7.9v-2.6l16.8-6.5v39.4c0,5.8,2.3,11.6,9,11.6c5.4,0,9.7-4.4,13.2-7.8V194c-0.3-5.8-0.4-7.9-7.1-7.9v-2.6
				l16.8-6.5v40.6c0,10.3,0,11,7.6,11.9v3.2H645V224.8z"/>
			<path class="st0" d="M704.1,194.9l-2.6,1.4c-5.4-6.9-12-14.9-20.8-14.9c-4.3,0-8.7,3-8.7,7.5c0,13.4,34.5,8.3,34.5,28.4
				c0,9.4-9.1,16.6-17.9,16.6c-2.7,0-4.7-0.8-7.2-1.5c-1.3-0.4-2.6-1-4.1-1c-2.3,0-4.5,1-6.4,2.5l-6.8-18.7l2.4-1.2
				c4.2,6.9,14.5,16.2,22.7,16.2c5,0,9.7-3.8,9.7-9c0-14.2-34.1-8-34.1-27.9c0-9.3,8.6-15.6,17.2-15.6c4,0,7.8,1.8,10.9,1.8
				c2.1,0,3.6-1,4.9-2.5L704.1,194.9z"/>
			<path class="st0" d="M709.7,182.6v-2.6c8.1-3.4,13.1-11.9,14-20.2h3.6v19.2h15.4v3.6h-15.4v33.3c0,4.9-0.5,12.2,6.3,12.2
				c4.3,0,6.9-2.7,9.7-5.5l1.9,2.2c-4.2,4.7-9.7,9.1-16.4,9.1c-9.7,0-11.1-7.9-11.1-15.7v-35.6H709.7z"/>
		</g>
	</g>
</g>
</svg>
